<svg width="882" height="212" viewBox="0 0 882 212" fill="none" xmlns="http://www.w3.org/2000/svg">
<path d="M431.654 72.7349C437.31 67.0259 437.31 67.0259 451.154 67.0438C458.77 67.0545 465.708 67.5092 466.573 68.0546C467.615 68.7109 468.02 71.0248 467.773 74.8984C467.4 80.7494 467.4 80.7494 454.5 81.0883L441.6 81.4272V97.4968V113.566H454.8C468 113.566 468 113.566 468 120.727C468 127.887 468 127.887 452.027 127.887C436.054 127.887 436.054 127.887 431.027 122.484C426 117.082 426 117.082 426 97.7641C426 78.445 426 78.445 431.654 72.7349Z" fill="black"/>
<path d="M530.4 98.2522C530.4 81.9523 530.76 68.2586 531.2 67.8219C532.681 66.3481 543.398 66.9961 545.071 68.6596C545.975 69.5582 550.962 77.346 556.153 85.9667C561.346 94.5863 565.909 101.327 566.297 100.946C566.683 100.563 567.27 92.9096 567.6 83.9368C568.2 67.6226 568.2 67.6226 572.266 67.2359C574.502 67.0235 577.616 67.1703 579.187 67.5629C582.042 68.2753 582.042 68.2753 581.72 97.7821L581.4 127.29L574.2 127.629C567 127.967 567 127.967 556.2 110.148L545.4 92.3297L545.069 110.108C544.738 127.887 544.738 127.887 537.569 127.887H530.4V98.2522Z" fill="black"/>
<path d="M668.678 98.1365C668.43 75.6096 668.702 68.7658 669.878 68.0235C671.896 66.7502 709.354 66.7812 711.378 68.0569C712.398 68.7002 712.822 70.9102 712.578 74.3041C712.2 79.556 712.2 79.5561 698.1 79.8926C684 80.2279 684 80.2279 684 85.518C684 90.8069 684 90.8069 695.7 91.1482C707.4 91.4895 707.4 91.4895 707.4 97.4563C707.4 103.423 707.4 103.423 695.636 103.765C683.872 104.108 683.872 104.108 684.236 109.732C684.6 115.356 684.6 115.356 698.7 115.693C712.8 116.028 712.8 116.028 712.8 121.984C712.8 127.94 712.8 127.94 690.9 127.616L669 127.29L668.678 98.1365Z" fill="black"/>
<path fill-rule="evenodd" clip-rule="evenodd" d="M484.22 68.1858C483.823 68.8243 482.459 74.5977 481.186 81.0143C479.914 87.4321 477.236 100.469 475.236 109.986C473.237 119.503 471.6 127.449 471.6 127.643C471.6 127.837 475.244 127.837 479.7 127.643C487.8 127.29 487.8 127.29 488.902 121.622C489.371 119.204 489.64 117.817 490.477 117.022C491.603 115.953 493.755 115.953 498.802 115.953C506.563 115.953 507.6 116.213 507.6 118.162C507.6 119.377 508.193 122.062 508.918 124.129C510.214 127.826 510.361 127.887 518.068 127.887C522.984 127.887 524.814 127.887 525.315 127.075C525.612 126.594 525.441 125.827 525.169 124.605C523.985 119.278 518.78 94.8583 515.951 81.3461C514.508 74.4545 512.713 68.4209 511.963 67.9388C509.92 66.6249 485.053 66.8469 484.22 68.1858ZM504.522 98.5506C504.068 95.5421 503.08 90.3117 502.324 86.9262C501.388 82.7363 500.286 80.6456 498.871 80.3747C496.506 79.9212 496.468 80.0131 493.897 91.9346C492.34 99.1561 491.613 102.069 492.731 103.24C493.559 104.109 495.402 104.02 498.673 104.02C505.348 104.02 505.348 104.02 504.522 98.5506Z" fill="black"/>
<path fill-rule="evenodd" clip-rule="evenodd" d="M613.5 67.8159C612.356 68.2753 612 75.482 612 98.152V127.887H619.8C623.594 127.887 625.543 127.887 626.544 126.918C627.6 125.896 627.6 123.794 627.6 119.474C627.6 114.968 627.6 112.875 628.644 111.958C629.549 111.163 631.24 111.252 634.396 111.418C637.503 111.582 639.189 111.671 640.42 112.461C641.881 113.399 642.7 115.324 644.491 119.533C647.792 127.29 647.792 127.29 656.446 127.643C663.163 127.918 664.957 127.652 664.462 126.45C664.11 125.599 661.922 120.798 659.599 115.78C655.376 106.658 655.376 106.658 658.288 103.937C661.002 101.403 661.2 100.387 661.2 89.0467C661.2 76.877 661.2 76.877 655.826 71.9508C650.454 67.0259 650.454 67.0259 632.726 67.1202C622.978 67.1715 614.326 67.4853 613.5 67.8159ZM645.081 97.5371C646.288 96.3375 646.375 94.0254 646.55 89.4012C646.901 80.1527 646.901 80.1527 637.25 80.1527C632.425 80.1527 630.013 80.1527 628.806 81.3523C627.6 82.5519 627.6 84.9512 627.6 89.7496C627.6 94.6054 627.6 97.0042 628.805 98.1442C629.981 99.2573 632.306 99.1702 636.9 98.9981C641.55 98.8238 643.875 98.7367 645.081 97.5371Z" fill="black"/>
<path fill-rule="evenodd" clip-rule="evenodd" d="M720.8 67.8219C720.36 68.2586 720 81.9785 720 98.3083V128L727.5 127.646C735 127.29 735 127.29 735.366 121.622C735.513 119.35 735.601 117.988 736.317 117.173C737.388 115.953 739.863 115.953 746.038 115.953C756.343 115.953 756.343 115.953 762.172 110.157C768 104.361 768 104.361 768 91.4895C768 78.6181 768 78.6181 762.172 72.822C756.343 67.0259 756.343 67.0259 738.972 67.0259C729.418 67.0259 721.24 67.3839 720.8 67.8219ZM750.997 101.798C752.4 100.538 752.4 97.7329 752.4 91.4895C752.4 85.2461 752.4 82.4411 750.997 81.1808C749.852 80.1527 747.774 80.1527 744 80.1527C740.226 80.1527 738.148 80.1527 737.003 81.1808C735.6 82.4411 735.6 85.2461 735.6 91.4895C735.6 97.7329 735.6 100.538 737.003 101.798C738.148 102.826 740.226 102.826 744 102.826C747.774 102.826 749.852 102.826 750.997 101.798Z" fill="black"/>
<path fill-rule="evenodd" clip-rule="evenodd" d="M775.5 67.8159C774.356 68.2753 774 75.482 774 98.152V127.887H781.8C785.604 127.887 787.552 127.887 788.551 126.918C789.6 125.9 789.6 123.813 789.6 119.533C789.6 114.994 789.6 112.921 790.638 111.975C791.51 111.18 793.115 111.18 796.069 111.18C799.508 111.18 801.12 111.18 802.175 111.941C803.105 112.613 803.604 113.876 804.541 116.251C807.344 123.351 808.239 126.141 810.125 127.225C811.568 128.055 813.591 127.887 817.493 127.887C821.952 127.887 825.605 127.484 825.61 126.992C825.616 126.499 823.674 121.742 821.296 116.42C818.435 110.019 817.466 107.852 818.04 106.222C818.334 105.387 819.031 104.694 820.086 103.645C822.997 100.75 823.2 99.8155 823.2 89.32C823.2 78.093 823.2 78.093 817.252 72.5594C815.221 70.67 813.883 69.4257 812.319 68.61C809.304 67.0369 805.447 67.0581 794.152 67.1202C784.718 67.1715 776.326 67.4853 775.5 67.8159ZM806.401 98.1283C807.6 96.9612 807.6 94.5756 807.6 89.6995C807.6 80.1527 807.6 80.1527 798.6 80.1527C789.6 80.1527 789.6 80.1527 789.6 89.6995C789.6 94.5756 789.6 96.9612 790.799 98.1283C791.948 99.2463 794.197 99.2463 798.6 99.2463C803.003 99.2463 805.252 99.2463 806.401 98.1283Z" fill="black"/>
<path fill-rule="evenodd" clip-rule="evenodd" d="M832.314 76.9327C830.4 80.0624 830.4 84.3494 830.4 97.9682C830.4 117.843 830.4 117.843 835.546 122.865C840.691 127.887 840.691 127.887 856.392 127.887C872.094 127.887 872.094 127.887 877.048 122.543C882 117.2 882 117.2 882 97.646C882 78.093 882 78.093 876.052 72.5594C870.103 67.0259 870.103 67.0259 856.2 67.0259C842.297 67.0259 842.297 67.0259 836.348 72.5594C834.476 74.3013 833.193 75.4949 832.314 76.9327ZM865.8 114.163L866.134 97.7546L866.467 81.3461H856.234H846V98.1007V114.856L855.9 114.509L865.8 114.163Z" fill="black"/>
<path fill-rule="evenodd" clip-rule="evenodd" d="M279.219 211.913C258.907 211.128 240.007 205.087 223.957 195.168L242.456 165.648C242.854 165.825 243.253 165.999 243.655 166.17C254.093 170.617 265.696 173.132 277.927 173.217C278.062 173.218 278.197 173.219 278.332 173.219L278.573 173.22C278.789 173.22 279.004 173.219 279.219 173.217V211.913ZM286.186 172.903L287.829 211.929C307.81 211.233 326.438 205.449 342.347 195.889L326.118 159.497C325.752 159.732 325.383 159.964 325.013 160.194C314.062 166.981 301.271 171.436 287.475 172.786C287.046 172.828 286.617 172.867 286.186 172.903ZM382.49 153.665C374.643 168.589 363.227 181.49 349.316 191.338L330.141 156.748C330.493 156.493 330.842 156.234 331.189 155.974C339.455 149.764 346.405 142.122 351.596 133.458C351.818 133.087 352.037 132.714 352.253 132.34L382.49 153.665ZM385.878 146.585C390.9 134.973 393.832 122.319 394.223 109.056L361.387 105.303C361.333 105.732 361.275 106.159 361.213 106.585C360.136 114.026 357.905 121.13 354.692 127.74C354.504 128.128 354.312 128.515 354.116 128.899L385.878 146.585ZM387.47 69.3137C391.474 79.7249 393.824 90.9047 394.211 102.559L361.84 100.311C361.864 99.8818 361.884 99.4513 361.9 99.0198C361.934 98.1187 361.951 97.2136 361.951 96.3049C361.951 90.7382 361.31 85.3097 360.092 80.0786C359.994 79.6568 359.892 79.2362 359.787 78.8169L387.47 69.3137ZM385.392 64.3103C381.821 56.3131 377.255 48.8222 371.842 41.9811L349.625 56.0367C349.864 56.3952 350.1 56.7557 350.333 57.1181C353.76 62.4458 356.509 68.1878 358.471 74.2431C358.604 74.6545 358.734 75.0675 358.86 75.4818L385.392 64.3103ZM347.487 52.9966L368.702 38.1954C363.553 32.2677 357.743 26.8873 351.379 22.1586L335.203 39.8518C335.531 40.1319 335.856 40.4145 336.179 40.6994C340.067 44.128 343.596 47.9003 346.709 51.9632C346.972 52.3056 347.231 52.6501 347.487 52.9966ZM348.466 20.0659L333.037 38.0657C332.7 37.7972 332.361 37.5311 332.019 37.2675C328.322 34.4165 324.353 31.8555 320.154 29.6223C319.772 29.4195 319.389 29.2194 319.004 29.0221L330.924 10.1153C337.107 12.9188 342.976 16.2564 348.466 20.0659ZM317.157 28.1033C316.768 27.9159 316.378 27.7313 315.986 27.5495C311.673 25.5484 307.146 23.8825 302.444 22.5888C302.026 22.4738 301.607 22.3617 301.186 22.2525L309.062 2.7941C315.52 4.24566 321.76 6.24036 327.726 8.72521L317.157 28.1033ZM305.012 1.96063L298.999 21.7151C298.579 21.6175 298.157 21.5228 297.735 21.431C293.039 20.4125 288.191 19.76 283.227 19.508C282.797 19.4862 282.367 19.4674 281.935 19.4516L282.332 0.00846994C282.802 0.00282927 283.273 0 283.744 0C291.019 0 298.129 0.674065 305.012 1.96063ZM278.573 19.3902C278.141 19.3902 277.711 19.3933 277.28 19.3993C273.008 19.4592 268.814 19.8155 264.721 20.4469C264.294 20.5128 263.868 20.5817 263.443 20.6535L261.59 2.1299C267.113 1.05229 272.785 0.36961 278.573 0.113951L278.573 19.3902ZM258.64 2.74609L261.196 21.0631C260.772 21.146 260.349 21.232 259.927 21.3209C256.034 22.1414 252.244 23.2133 248.579 24.5171C248.173 24.6617 247.768 24.8092 247.365 24.9595L241.279 8.10625C246.85 5.88078 252.652 4.08001 258.64 2.74609ZM245.287 25.7641C244.887 25.925 244.488 26.0888 244.091 26.2553C240.853 27.6141 237.725 29.1583 234.724 30.8732C234.349 31.0873 233.977 31.3041 233.606 31.5235L224.294 16.6245C228.774 13.8781 233.474 11.433 238.363 9.3189L245.287 25.7641ZM221.519 18.3832L231.821 32.6102C231.455 32.8394 231.091 33.0712 230.729 33.3056C228.263 34.9017 225.896 36.6178 223.637 38.4447C223.297 38.7197 222.959 38.9973 222.624 39.2773L209.254 27.6903C213.103 24.3209 217.201 21.2091 221.519 18.3832ZM221.145 40.5433C220.808 40.8387 220.473 41.1367 220.142 41.4373C218.106 43.2828 216.172 45.2241 214.348 47.2531C214.037 47.5992 213.73 47.9478 213.425 48.2989L195.602 42.0367C198.74 38.0651 202.164 34.3122 205.843 30.8059L221.145 40.5433Z" fill="url(#paint0_angular_1_34)"/>
<path d="M216.669 190.255L235.993 162.447C235.613 162.239 235.235 162.028 234.859 161.814C227.462 157.604 220.832 152.359 215.207 146.296C214.913 145.98 214.622 145.662 214.334 145.341L192.856 166.331C199.448 175.448 207.493 183.526 216.669 190.255Z" fill="url(#paint1_angular_1_34)"/>
<path d="M93.0732 117.299C61.0147 115.231 63.3415 126.348 68.5122 132.165C63.3415 132.165 60.3252 129.149 59.4634 127.641C57.7399 124.193 59.0756 116.136 78.2073 111.482C97.339 106.828 118.927 121.608 127.329 129.58L312.829 128.287L121.512 134.104C111.688 121.177 98.4594 117.515 93.0732 117.299Z" fill="black"/>
<path d="M29.7317 123.116L0 126.348L32.9634 126.994L48.4756 105.665C63.126 100.71 97.0805 91.9626 115.695 96.6163C138.963 102.433 188.732 101.141 171.28 100.494C153.829 99.848 137.024 95.9699 110.524 90.7992C89.3244 86.6626 56.878 96.8317 43.3049 102.433L29.7317 123.116Z" fill="black"/>
<path d="M110.524 90.1528C120.65 78.0878 148.012 56.2845 176.451 65.5918C204.89 74.8992 248.195 84.5512 266.293 88.2138C274.049 89.5065 293.698 91.8333 310.244 90.7992C303.382 93.8265 290.432 102.753 290.097 115.346C290.117 116.294 290.156 117.171 290.207 117.946C290.109 117.063 290.074 116.196 290.097 115.346C289.945 108.299 290.814 97.2932 295.34 94.6989C291.829 96.5819 250.041 92.065 225.573 84.9821C228.805 94.8927 227.771 115.877 197.78 120.531C209.199 116.007 229.451 102.821 219.11 86.2748C216.309 83.6894 203.856 77.226 176.451 72.0553C142.195 65.5918 132.5 79.165 118.28 92.0919L110.524 90.1528Z" fill="black"/>
<path d="M280.512 108.585L275.341 98.2439L337.39 106C314.639 105.483 289.992 107.508 280.512 108.585Z" fill="#C23E3E"/>
<defs>
<radialGradient id="paint0_angular_1_34" cx="0" cy="0" r="1" gradientUnits="userSpaceOnUse" gradientTransform="translate(279.543 94.3658) rotate(-86.5387) scale(80.2928 83.7199)">
<stop offset="0.0284479" stop-color="#85A65A"/>
<stop offset="0.334" stop-color="#DA8A51"/>
<stop offset="0.46269" stop-color="#C23E3E"/>
<stop offset="0.611823" stop-color="#C23E3E"/>
<stop offset="0.885929" stop-color="#9ADF43"/>
</radialGradient>
<radialGradient id="paint1_angular_1_34" cx="0" cy="0" r="1" gradientUnits="userSpaceOnUse" gradientTransform="translate(279.543 94.3658) rotate(-86.5387) scale(80.2928 83.7199)">
<stop offset="0.0284479" stop-color="#85A65A"/>
<stop offset="0.334" stop-color="#DA8A51"/>
<stop offset="0.46269" stop-color="#C23E3E"/>
<stop offset="0.611823" stop-color="#C23E3E"/>
<stop offset="0.885929" stop-color="#9ADF43"/>
</radialGradient>
</defs>
</svg>
